<svg xmlns="http://www.w3.org/2000/svg" viewBox="0 0 1600 900" preserveAspectRatio="xMidYMid slice" role="img" aria-label="Window treatments">
  <defs>
    <linearGradient id="sky" x1="0" y1="0" x2="0" y2="1">
      <stop offset="0" stop-color="#2a4a66"/>
      <stop offset="1" stop-color="#152838"/>
    </linearGradient>
    <linearGradient id="light" x1="0" y1="0" x2="0" y2="1">
      <stop offset="0" stop-color="#f4e6c8"/>
      <stop offset="1" stop-color="#d9b877"/>
    </linearGradient>
  </defs>
  <rect width="1600" height="900" fill="url(#sky)"/>
  <g>
    <rect x="200" y="120" width="500" height="660" rx="8" fill="#0f1c28"/>
    <rect x="224" y="144" width="452" height="612" rx="4" fill="url(#light)"/>
    <g fill="#c9a66b" opacity="0.85">
      <rect x="224" y="150" width="452" height="34"/>
      <rect x="224" y="214" width="452" height="34"/>
      <rect x="224" y="278" width="452" height="34"/>
      <rect x="224" y="342" width="452" height="34"/>
      <rect x="224" y="406" width="452" height="34"/>
      <rect x="224" y="470" width="452" height="34"/>
      <rect x="224" y="534" width="452" height="34"/>
      <rect x="224" y="598" width="452" height="34"/>
      <rect x="224" y="662" width="452" height="34"/>
    </g>
  </g>
  <g>
    <rect x="900" y="120" width="500" height="660" rx="8" fill="#0f1c28"/>
    <rect x="924" y="144" width="452" height="612" rx="4" fill="url(#light)"/>
    <g stroke="#9c7b43" stroke-width="3" opacity="0.7">
      <line x1="924" y1="220" x2="1376" y2="220"/>
      <line x1="924" y1="300" x2="1376" y2="300"/>
      <line x1="924" y1="380" x2="1376" y2="380"/>
      <line x1="924" y1="460" x2="1376" y2="460"/>
      <line x1="924" y1="540" x2="1376" y2="540"/>
      <line x1="924" y1="620" x2="1376" y2="620"/>
    </g>
    <rect x="1148" y="144" width="4" height="612" fill="#9c7b43" opacity="0.7"/>
  </g>
</svg>
