<svg xmlns="http://www.w3.org/2000/svg" viewBox="0 0 800 600" role="img" aria-label="Window blinds">
  <rect width="800" height="600" fill="#eef2f5"/>
  <rect x="140" y="80" width="520" height="440" rx="6" fill="#1f3a52"/>
  <rect x="164" y="104" width="472" height="392" fill="#f4e6c8"/>
  <g fill="#d8c89c" stroke="#b79f6f" stroke-width="1">
    <rect x="164" y="110" width="472" height="18"/>
    <rect x="164" y="140" width="472" height="18"/>
    <rect x="164" y="170" width="472" height="18"/>
    <rect x="164" y="200" width="472" height="18"/>
    <rect x="164" y="230" width="472" height="18"/>
    <rect x="164" y="260" width="472" height="18"/>
    <rect x="164" y="290" width="472" height="18"/>
    <rect x="164" y="320" width="472" height="18"/>
    <rect x="164" y="350" width="472" height="18"/>
    <rect x="164" y="380" width="472" height="18"/>
    <rect x="164" y="410" width="472" height="18"/>
    <rect x="164" y="440" width="472" height="18"/>
    <rect x="164" y="470" width="472" height="18"/>
  </g>
  <line x1="610" y1="104" x2="610" y2="496" stroke="#9c7b43" stroke-width="3"/>
</svg>
